# xmcd
#
# Track frame offsets: 
#        151
#        18170
#        35381
#        58804
#        75939
#        92924
#        111701
#        128326
#        143617
#        160916
#
# Disc length: 2359 seconds
#
# Revision: 1
# Processed by: cddbd v1.5.2PL0 Copyright (c) Steve Scherf et al.
# Submitted via: ExactAudioCopy v0.95b4
#
DISCID=7609350a
DTITLE=ศักดิ์  ภูเวียง - คิดฮอดสิอดเอา
DYEAR=2006
DGENRE=Country
TTITLE0=คิดฮอดสิอดเอา
TTITLE1=คิดนำเมียเผิ่น
TTITLE2=วันงานประหารใจ
TTITLE3=อย่ามาลูบหลัง
TTITLE4=กลับมาอยู่บ้านเฮา
TTITLE5=ศักดิ์ภูเวียงวอนแฟน
TTITLE6=มีแฟนแล้วบ่
TTITLE7=มือสองของชอบ
TTITLE8=ฮักแม่ฮ้างใหม่
TTITLE9=ให้มันแม่นโลด
EXTD=
EXTT0=
EXTT1=
EXTT2=
EXTT3=
EXTT4=
EXTT5=
EXTT6=
EXTT7=
EXTT8=
EXTT9=
PLAYORDER=
